# xmcd
#
# Track frame offsets:
#	150
#	20500
#	35145
#	55787
#	76947
#	92105
#	114012
#	130787
#	150770
#	166860
#	184190
#	207722
#
# Disc length: 3075 seconds
#
# Revision: 1
# Processed by: cddbd v1.4PL0 Copyright (c) Steve Scherf et al.
# Submitted via: audiograbber 1.82.02
#
DISCID=8f0c010c
DTITLE=Janine - Janine
DYEAR=2000
DGENRE=
TTITLE0=Y a que moi
TTITLE1=Miss nice girl
TTITLE2=Mon chum
TTITLE3=Elise
TTITLE4=Sans compromis
TTITLE5=Mon ange
TTITLE6=Je hurle ta vie
TTITLE7=Tommy
TTITLE8=Du chocolat
TTITLE9=Tu t'fous pas mal
TTITLE10=You've been crying
TTITLE11=Plus haut
EXTD=www.QuebecPop.com
EXTT0=
EXTT1=
EXTT2=
EXTT3=
EXTT4=
EXTT5=
EXTT6=
EXTT7=
EXTT8=
EXTT9=
EXTT10=
EXTT11=
PLAYORDER=
